/* XPM */
static char * stock_zoom_1_xpm[] = {
"24 24 157 2",
"  	c None",
". 	c #000000",
"+ 	c #30302D",
"@ 	c #7E7E75",
"# 	c #B3B3A5",
"$ 	c #CFCFBE",
"% 	c #D2D2C1",
"& 	c #BABAAA",
"* 	c #848479",
"= 	c #31312D",
"- 	c #87877F",
"; 	c #D7D7CC",
"> 	c #DADACD",
", 	c #DADACC",
"' 	c #DADACB",
") 	c #DCDCCC",
"! 	c #DFDFCF",
"~ 	c #DEDECD",
"{ 	c #D9D9C8",
"] 	c #7E7E73",
"^ 	c #A6A69D",
"/ 	c #E2E2D9",
"( 	c #E9E9E2",
"_ 	c #EAEAE2",
": 	c #E6E6DB",
"< 	c #E3E3D5",
"[ 	c #E3E3D3",
"} 	c #DFDFCE",
"| 	c #D9D9C7",
"1 	c #D4D4C3",
"2 	c #929285",
"3 	c #86867E",
"4 	c #E0E0D8",
"5 	c #F0F0EB",
"6 	c #F8F8F5",
"7 	c #F7F7F3",
"8 	c #F0F0E9",
"9 	c #EAEADF",
"0 	c #E2E2D4",
"a 	c #DADACA",
"b 	c #D3D3C2",
"c 	c #CECEBD",
"d 	c #C9C9B8",
"e 	c #C4C4B4",
"f 	c #717168",
"g 	c #30302C",
"h 	c #D6D6CA",
"i 	c #E7E7DF",
"j 	c #F6F6F3",
"k 	c #FEFEFD",
"l 	c #FCFCFA",
"m 	c #F5F5EF",
"n 	c #DFDFD0",
"o 	c #D6D6C6",
"p 	c #C4C4B3",
"q 	c #BFBFAE",
"r 	c #B9B9AA",
"s 	c #282824",
"t 	c #D9D9CC",
"u 	c #E6E6DD",
"v 	c #F3F3EE",
"w 	c #E4E4D9",
"x 	c #D9D9CA",
"y 	c #D0D0C0",
"z 	c #C8C8B9",
"A 	c #B9B9A9",
"B 	c #B4B4A4",
"C 	c #68685F",
"D 	c #B3B3A6",
"E 	c #E4E4D8",
"F 	c #E7E7DC",
"G 	c #CACABA",
"H 	c #B3B3A4",
"I 	c #AEAE9F",
"J 	c #909083",
"K 	c #D1D1C0",
"L 	c #DBDBCC",
"M 	c #C3C3B3",
"N 	c #A9A99A",
"O 	c #A1A192",
"P 	c #D5D5C3",
"Q 	c #E2E2D1",
"R 	c #D0D0C1",
"S 	c #C3C3B2",
"T 	c #BDBDAC",
"U 	c #B7B7A8",
"V 	c #A8A899",
"W 	c #A3A395",
"X 	c #9B9B8D",
"Y 	c #BDBDAE",
"Z 	c #DBDBCA",
"` 	c #C8C8B8",
" .	c #B7B7A7",
"..	c #B2B2A2",
"+.	c #A3A394",
"@.	c #9E9E8F",
"#.	c #828275",
"$.	c #DADAC8",
"%.	c #D5D5C4",
"&.	c #D0D0BF",
"*.	c #C1C1B0",
"=.	c #B1B1A2",
"-.	c #ACAC9D",
";.	c #9D9D8F",
">.	c #98988A",
",.	c #57574F",
"'.	c #CACAB9",
").	c #BBBBAB",
"!.	c #B6B6A6",
"~.	c #B1B1A1",
"{.	c #A7A798",
"].	c #989889",
"^.	c #1F1F1C",
"/.	c #7B7B71",
"(.	c #C5C5B4",
"_.	c #C0C0AF",
":.	c #BABAAB",
"<.	c #B5B5A6",
"[.	c #B0B0A1",
"}.	c #ABAB9C",
"|.	c #A6A697",
"1.	c #A1A193",
"2.	c #9C9C8E",
"3.	c #979789",
"4.	c #929284",
"5.	c #53534B",
"6.	c #8D8D82",
"7.	c #BFBFAF",
"8.	c #B5B5A5",
"9.	c #B0B0A0",
"0.	c #9C9C8D",
"a.	c #969689",
"b.	c #919184",
"c.	c #65655C",
"d.	c #6E6E65",
"e.	c #B4B4A5",
"f.	c #AFAFA0",
"g.	c #AAAA9B",
"h.	c #A5A596",
"i.	c #A0A092",
"j.	c #969688",
"k.	c #919183",
"l.	c #241D14",
"m.	c #211100",
"n.	c #262623",
"o.	c #8C8C80",
"p.	c #9D9D8E",
"q.	c #7F7F74",
"r.	c #55554E",
"s.	c #E9D1B8",
"t.	c #A6825C",
"u.	c #582D00",
"v.	c #0B0600",
"w.	c #160B00",
"x.	c #4D2800",
"y.	c #371C00",
"z.	c #372B1F",
"              . . . . . .                       ",
"          . . . . . . . . . .                   ",
"        . . + @ # $ % & * = . .                 ",
"      . . - ; > , ' ) ! ~ { ] . .               ",
"    . . ^ / ( _ : < [ } | 1 $ 2 . .             ",
"  . . 3 4 5 6 7 8 9 0 a b c d e f . .           ",
"  . g h i j k l m 9 n o $ d p q r s .           ",
". . @ t u v . . 8 w x y z . . A B C . .         ",
". . D , E . . . F . . G . . . H I J . .         ",
". . K L 0 . . . > . . M . . . I N O . .         ",
". . P } Q ! . . R G S T U . . V W X . .         ",
". . Y } Z o . . ` . .  .... . +.@.#.. .         ",
". . * $.%.&.. . *.. . =.-.. . ;.>.,.. .         ",
"  . g 1 $ '.. . ).!.~.-.{.. . ].2 ^..           ",
"  . . /.'.(._.:.<.[.}.|.1.2.3.4.5.. .           ",
"    . . 6.7.& 8.9.}.|.O 0.a.b.c.. . .           ",
"      . . d.e.f.g.h.i.X j.k.5.. . l.m..         ",
"        . . n.c.o.p.].q.r.^.. . l.s.t.u.v.      ",
"          . . . . . . . . . . . w.t.s.t.u.v.    ",
"              . . . . . .       . x.t.s.t.u..   ",
"                                  v.u.t.s.t.y.. ",
"                                    v.u.t.s.t.. ",
"                                      v.x.t.s.. ",
"                                        . w.z.. "};
