<svg xmlns="http://www.w3.org/2000/svg" xmlns:xlink="http://www.w3.org/1999/xlink" height="128" width="128"><defs><radialGradient gradientTransform="matrix(1.56071 0 0 1.4252 300.694 13.35)" r="15.857" fy="28.569" fx="-172.561" cy="28.569" cx="-172.561" gradientUnits="userSpaceOnUse" id="F"><stop stop-opacity=".358" stop-color="#fff" offset="0"/><stop stop-opacity=".094" stop-color="#fff" offset="1"/></radialGradient><radialGradient gradientTransform="matrix(.48516 -1.14858 -.77111 -.0633 -47.125 203.989)" r="160" fy="55.927" fx="131.915" cy="55.927" cx="131.915" gradientUnits="userSpaceOnUse" id="l"><stop stop-color="#ed333b" offset="0"/><stop stop-color="#a347ba" offset="1"/></radialGradient><radialGradient gradientTransform="matrix(1.56071 0 0 1.4252 300.694 13.35)" r="15.857" fy="28.569" fx="-172.561" cy="28.569" cx="-172.561" gradientUnits="userSpaceOnUse" id="o"><stop stop-opacity=".358" stop-color="#fff" offset="0"/><stop stop-opacity=".094" stop-color="#fff" offset="1"/></radialGradient><radialGradient gradientTransform="matrix(.48516 -1.14858 -.77111 -.0633 -47.125 203.989)" r="160" fy="55.927" fx="131.915" cy="55.927" cx="131.915" gradientUnits="userSpaceOnUse" id="C"><stop stop-color="#ed333b" offset="0"/><stop stop-color="#a347ba" offset="1"/></radialGradient><radialGradient gradientTransform="matrix(-.2251 -.47764 -.6853 .548 725.68 15.724)" r="192" fy="638.592" fx="525.588" cy="638.592" cx="525.588" gradientUnits="userSpaceOnUse" id="D"><stop stop-color="#1c71d8" offset="0"/><stop stop-opacity=".008" stop-color="#3584e4" offset="1"/></radialGradient><radialGradient gradientTransform="matrix(-.2251 -.47764 -.6853 .548 725.68 15.724)" r="192" fy="638.592" fx="525.588" cy="638.592" cx="525.588" gradientUnits="userSpaceOnUse" id="m"><stop stop-color="#1c71d8" offset="0"/><stop stop-opacity=".008" stop-color="#3584e4" offset="1"/></radialGradient><radialGradient gradientTransform="matrix(.57555 0 0 1.5407 8.978 -280.781)" r="28" fy="227" fx="40" cy="227" cx="40" gradientUnits="userSpaceOnUse" id="r"><stop stop-color="#fff" offset="0"/><stop stop-color="#fafafa" offset=".745"/><stop stop-color="#dfdfdf" offset="1"/></radialGradient><radialGradient gradientTransform="matrix(-.10766 -.22517 -.32775 .25834 373.88 30.205)" r="192" fy="638.592" fx="525.588" cy="638.592" cx="525.588" gradientUnits="userSpaceOnUse" id="x"><stop stop-color="#1c71d8" offset="0"/><stop stop-opacity=".008" stop-color="#3584e4" offset="1"/></radialGradient><radialGradient gradientTransform="matrix(-.10766 -.22517 -.32775 .25834 373.88 30.205)" r="192" fy="638.592" fx="525.588" cy="638.592" cx="525.588" gradientUnits="userSpaceOnUse" id="i"><stop stop-color="#1c71d8" offset="0"/><stop stop-opacity=".008" stop-color="#3584e4" offset="1"/></radialGradient><radialGradient gradientTransform="matrix(.23203 -.54148 -.3688 -.02984 4.278 118.958)" r="160" fy="55.927" fx="131.915" cy="55.927" cx="131.915" gradientUnits="userSpaceOnUse" id="h"><stop stop-color="#ed333b" offset="0"/><stop stop-color="#a347ba" offset="1"/></radialGradient><radialGradient gradientTransform="matrix(.57555 0 0 1.5407 8.978 -280.781)" r="28" fy="227" fx="40" cy="227" cx="40" gradientUnits="userSpaceOnUse" id="H"><stop stop-color="#fff" offset="0"/><stop stop-color="#fafafa" offset=".745"/><stop stop-color="#dfdfdf" offset="1"/></radialGradient><radialGradient gradientTransform="matrix(.23203 -.54148 -.3688 -.02984 4.278 118.958)" r="160" fy="55.927" fx="131.915" cy="55.927" cx="131.915" gradientUnits="userSpaceOnUse" id="w"><stop stop-color="#ed333b" offset="0"/><stop stop-color="#a347ba" offset="1"/></radialGradient><clipPath id="A"><path d="M7 46h50v47H7zm0 0"/></clipPath><clipPath id="s"><path d="M0 0h128v128H0z"/></clipPath><clipPath id="j"><path d="M7 46h50v47H7zm0 0"/></clipPath><clipPath id="k"><path d="M32.25 46.957c-12.563.012-23.164 9.68-24.746 22.574 1.559 12.914 12.164 22.614 24.746 22.63 12.566-.013 23.164-9.68 24.75-22.575-1.559-12.914-12.164-22.613-24.75-22.629zm0 0"/></clipPath><clipPath id="d"><path d="M0 0h128v128H0z"/></clipPath><clipPath id="B"><path d="M32.25 46.957c-12.563.012-23.164 9.68-24.746 22.574 1.559 12.914 12.164 22.614 24.746 22.63 12.566-.013 23.164-9.68 24.75-22.575-1.559-12.914-12.164-22.613-24.75-22.629zm0 0"/></clipPath><clipPath id="b"><path d="M0 0h128v128H0z"/></clipPath><clipPath id="f"><path d="M0 0h192v152H0z"/></clipPath><clipPath id="g"><path d="M0 0h128v128H0z"/></clipPath><g filter="url(#a)" clip-path="url(#b)" id="v"><use xlink:href="#c"/></g><g clip-path="url(#f)" id="q"><path fill="#453637" d="M40 59.957c-13.809 0-25 11.195-25 25 .012 1.04.086 1.82.223 2.848 0-11.848 12.199-21.836 24.777-21.848 12.598.016 24.777 10 24.777 21.902.141-1.043.215-1.847.223-2.902 0-13.805-11.191-25-25-25zm0 0"/></g><g clip-path="url(#g)" id="c"><path fill="#f6f5f4" d="M20 11.957h88a8 8 0 018 8V108a8 8 0 01-8 8H20a8 8 0 01-8-8V19.957a8 8 0 018-8zm0 0"/><path fill="url(#h)" d="M20 85.957h88v-66H20zm0 0"/><path fill="url(#i)" d="M20 85.957h88v-66H20zm0 0"/><g clip-path="url(#j)"><g clip-path="url(#k)"><path d="M0 0h128v128H0z" fill="url(#l)"/><path d="M0 0h128v128H0z" fill="url(#m)"/></g></g><path fill="url(#n)" d="M31.902 42.055c-14.359 0-26 11.64-26 26 .008 2.074.266.136.766 2.148C9.355 58.371 19.868 49.97 32 49.957c11.98.016 22.402 8.215 25.234 19.855.438-1.886.66.18.668-1.757 0-14.36-11.64-26-26-26zM4 65.957v8c0 15.465 12.535 28 28 28s28-12.535 28-28v-8c0 7.152-2.684 13.074-7.094 17.379a25.99 25.99 0 01-21.004 10.719 25.985 25.985 0 01-21.484-11.403C6.41 78.414 4 72.734 4 65.957zm0 0"/><path fill="url(#o)" d="M32.25 46.957c-12.563.012-23.164 9.68-24.746 22.574 1.559 12.914 12.164 22.614 24.746 22.63 12.566-.013 23.164-9.68 24.75-22.575-1.559-12.914-12.164-22.613-24.75-22.629zm0 0"/><use mask="url(#p)" transform="translate(-8 -16)" xlink:href="#q"/><path fill="url(#r)" d="M32 40.957c-15.441 0-28 12.563-28 28 0 15.441 12.559 28 28 28s28-12.559 28-28v-22c0-3.312-2.688-6-6-6zm0 4c13.277 0 24 10.723 24 24 0 13.281-10.723 24-24 24s-24-10.719-24-24c0-13.277 10.723-24 24-24zm0 0"/><path fill="#deddda" d="M32 39.957c-15.441 0-28 12.563-28 28 0 15.441 12.559 28 28 28s28-12.559 28-28v-22c0-3.312-2.688-6-6-6zm0 4c13.277 0 24 10.723 24 24 0 13.281-10.723 24-24 24s-24-10.719-24-24c0-13.277 10.723-24 24-24zm0 0"/><path fill="#979491" d="M56 45.957a1.999 1.999 0 11-2-2c1.105 0 2 .898 2 2zm0 0"/></g><g clip-path="url(#s)" id="z"><use mask="url(#t)" xlink:href="#u"/></g><g clip-path="url(#d)" id="u"><path fill="url(#e)" d="M128 80.64V128H0V80.64zm0 0"/><path d="M13.309 80.64L60.664 128H81.88L34.52 80.64zm42.421 0L103.094 128h21.215L76.945 80.64zm42.43 0L128 110.48V89.27l-8.629-8.63zM0 88.548v21.215L18.238 128h21.215zm0 0"/></g><mask id="p"><g filter="url(#a)"><path d="M0 0h128v128H0z" fill-opacity=".1"/></g></mask><mask id="y"><use xlink:href="#v"/></mask><mask id="t"><g filter="url(#a)"><path d="M0 0h128v128H0z" fill-opacity=".8"/></g></mask><mask id="G"><g filter="url(#a)"><path d="M0 0h128v128H0z" fill-opacity=".1"/></g></mask><linearGradient gradientTransform="matrix(1.4 0 0 1.4 -26.8 2.492)" y2="37" x2="62" y1="37" x1="22" gradientUnits="userSpaceOnUse" id="n"><stop stop-color="#949390" offset="0"/><stop stop-color="#deddda" offset=".091"/><stop stop-color="#9a9996" offset=".336"/><stop stop-color="#c3c0ba" offset=".844"/><stop stop-color="#deddda" offset=".931"/><stop stop-color="#c0bfbc" offset="1"/></linearGradient><linearGradient gradientTransform="matrix(0 .37 -.98462 0 295.385 -30.36)" y2="235" x2="428" y1="235" x1="300" gradientUnits="userSpaceOnUse" id="e"><stop stop-color="#f9f06b" offset="0"/><stop stop-color="#f5c211" offset="1"/></linearGradient><linearGradient gradientTransform="matrix(1.4 0 0 1.4 -26.8 2.492)" y2="37" x2="62" y1="37" x1="22" gradientUnits="userSpaceOnUse" id="E"><stop stop-color="#949390" offset="0"/><stop stop-color="#deddda" offset=".091"/><stop stop-color="#9a9996" offset=".336"/><stop stop-color="#c3c0ba" offset=".844"/><stop stop-color="#deddda" offset=".931"/><stop stop-color="#c0bfbc" offset="1"/></linearGradient><filter height="100%" width="100%" y="0%" x="0%" filterUnits="objectBoundingBox" id="a"><feColorMatrix values="0 0 0 0 1 0 0 0 0 1 0 0 0 0 1 0 0 0 1 0" in="SourceGraphic"/></filter></defs><path fill="#f6f5f4" d="M20 11.957h88a8 8 0 018 8V108a8 8 0 01-8 8H20a8 8 0 01-8-8V19.957a8 8 0 018-8zm0 0"/><path fill="url(#w)" d="M20 85.957h88v-66H20zm0 0"/><path fill="url(#x)" d="M20 85.957h88v-66H20zm0 0"/><use mask="url(#y)" xlink:href="#z"/><g clip-path="url(#A)"><g clip-path="url(#B)"><path d="M0 0h128v128H0z" fill="url(#C)"/><path d="M0 0h128v128H0z" fill="url(#D)"/></g></g><path fill="url(#E)" d="M31.902 42.055c-14.359 0-26 11.64-26 26 .008 2.074.266.136.766 2.148C9.355 58.371 19.868 49.97 32 49.957c11.98.016 22.402 8.215 25.234 19.855.438-1.886.66.18.668-1.757 0-14.36-11.64-26-26-26zM4 65.957v8c0 15.465 12.535 28 28 28s28-12.535 28-28v-8c0 7.152-2.684 13.074-7.094 17.379a25.99 25.99 0 01-21.004 10.719 25.985 25.985 0 01-21.484-11.403C6.41 78.414 4 72.734 4 65.957zm0 0"/><path fill="url(#F)" d="M32.25 46.957c-12.563.012-23.164 9.68-24.746 22.574 1.559 12.914 12.164 22.614 24.746 22.63 12.566-.013 23.164-9.68 24.75-22.575-1.559-12.914-12.164-22.613-24.75-22.629zm0 0"/><use mask="url(#G)" transform="translate(-8 -16)" xlink:href="#q"/><path fill="url(#H)" d="M32 40.957c-15.441 0-28 12.563-28 28 0 15.441 12.559 28 28 28s28-12.559 28-28v-22c0-3.312-2.688-6-6-6zm0 4c13.277 0 24 10.723 24 24 0 13.281-10.723 24-24 24s-24-10.719-24-24c0-13.277 10.723-24 24-24zm0 0"/><path fill="#deddda" d="M32 39.957c-15.441 0-28 12.563-28 28 0 15.441 12.559 28 28 28s28-12.559 28-28v-22c0-3.312-2.688-6-6-6zm0 4c13.277 0 24 10.723 24 24 0 13.281-10.723 24-24 24s-24-10.719-24-24c0-13.277 10.723-24 24-24zm0 0"/><path fill="#979491" d="M56 45.957a1.999 1.999 0 11-2-2c1.105 0 2 .898 2 2zm0 0"/></svg>